{
  "accessors": [
    {
      "bufferView": 2,
      "componentType": 5126,
      "count": 2778,
      "max": [
        2.576427698135376,
        35.666481018066406,
        2.553009033203125
      ],
      "min": [
        -2.5295827388763428,
        6.105574357206933e-08,
        -2.553001880645752
      ],
      "type": "VEC3"
    },
    {
      "bufferView": 2,
      "byteOffset": 33336,
      "componentType": 5126,
      "count": 2778,
      "max": [
        1.0,
        1.0,
        1.0
      ],
      "min": [
        -1.0,
        -1.0,
        -1.0
      ],
      "type": "VEC3"
    },
    {
      "bufferView": 1,
      "componentType": 5126,
      "count": 2778,
      "max": [
        1.0,
        1.0
      ],
      "min": [
        0.0,
        0.0
      ],
      "type": "VEC2"
    },
    {
      "bufferView": 0,
      "componentType": 5125,
      "count": 15228,
      "type": "SCALAR"
    },
    {
      "bufferView": 2,
      "byteOffset": 66672,
      "componentType": 5126,
      "count": 32,
      "max": [
        1.9234707355499268,
        32.156009674072266,
        1.9000519514083862
      ],
      "min": [
        -1.8766257762908936,
        28.001127243041992,
        -1.900044560432434
      ],
      "type": "VEC3"
    },
    {
      "bufferView": 2,
      "byteOffset": 67056,
      "componentType": 5126,
      "count": 32,
      "max": [
        0.9732102155685425,
        -0.22991669178009033,
        0.9732098579406738
      ],
      "min": [
        -0.973210334777832,
        -0.8229020833969116,
        -0.9732096195220947
      ],
      "type": "VEC3"
    },
    {
      "bufferView": 1,
      "byteOffset": 22224,
      "componentType": 5126,
      "count": 32,
      "max": [
        1.0,
        1.0
      ],
      "min": [
        0.0,
        0.0
      ],
      "type": "VEC2"
    },
    {
      "bufferView": 0,
      "byteOffset": 60912,
      "componentType": 5125,
      "count": 96,
      "type": "SCALAR"
    }
  ],
  "asset": {
    "extras": {
      "author": "Lenna00 (https://sketchfab.com/Lenna00)",
      "license": "SKETCHFAB Standard (https://sketchfab.com/licenses)",
      "source": "https://sketchfab.com/3d-models/low-poly-lamp-post-8d906c39d5e540f69a2a471c81abb043",
      "title": "Low Poly Lamp Post"
    },
    "generator": "Sketchfab-15.65.0",
    "version": "2.0"
  },
  "bufferViews": [
    {
      "buffer": 0,
      "byteLength": 61296,
      "name": "floatBufferViews",
      "target": 34963
    },
    {
      "buffer": 0,
      "byteLength": 22480,
      "byteOffset": 61296,
      "byteStride": 8,
      "name": "floatBufferViews",
      "target": 34962
    },
    {
      "buffer": 0,
      "byteLength": 67440,
      "byteOffset": 83776,
      "byteStride": 12,
      "name": "floatBufferViews",
      "target": 34962
    }
  ],
  "buffers": [
    {
      "byteLength": 151216,
      "uri": "scene.bin"
    }
  ],
  "extensionsUsed": [
    "KHR_materials_specular",
    "KHR_materials_emissive_strength"
  ],
  "materials": [
    {
      "doubleSided": true,
      "extensions": {
        "KHR_materials_specular": {
          "specularColorFactor": [
            1.0,
            1.0,
            1.0
          ],
          "specularFactor": 1.0
        }
      },
      "name": "Metal",
      "pbrMetallicRoughness": {
        "baseColorFactor": [
          0.11391541917080127,
          0.12723684034084673,
          0.10816890565761723,
          1.0
        ],
        "metallicFactor": 0.9920030232473088,
        "roughnessFactor": 0.336364
      }
    },
    {
      "doubleSided": true,
      "emissiveFactor": [
        0.49304,
        0.347339,
        0.173869
      ],
      "extensions": {
        "KHR_materials_emissive_strength": {
          "emissiveStrength": 2.1790542599748877
        }
      },
      "name": "Light",
      "pbrMetallicRoughness": {
        "baseColorFactor": [
          0.6424400531506382,
          0.47747991765308234,
          0.25330206720630005,
          1.0
        ],
        "metallicFactor": 0.0,
        "roughnessFactor": 0.5
      }
    }
  ],
  "meshes": [
    {
      "name": "Object_0",
      "primitives": [
        {
          "attributes": {
            "NORMAL": 1,
            "POSITION": 0,
            "TEXCOORD_0": 2
          },
          "indices": 3,
          "material": 0,
          "mode": 4
        }
      ]
    },
    {
      "name": "Object_1",
      "primitives": [
        {
          "attributes": {
            "NORMAL": 5,
            "POSITION": 4,
            "TEXCOORD_0": 6
          },
          "indices": 7,
          "material": 1,
          "mode": 4
        }
      ]
    }
  ],
  "nodes": [
    {
      "children": [
        1
      ],
      "matrix": [
        1.0,
        0.0,
        0.0,
        0.0,
        0.0,
        2.220446049250313e-16,
        -1.0,
        0.0,
        0.0,
        1.0,
        2.220446049250313e-16,
        0.0,
        0.0,
        0.0,
        0.0,
        1.0
      ],
      "name": "Sketchfab_model"
    },
    {
      "children": [
        2
      ],
      "name": "root"
    },
    {
      "children": [
        3
      ],
      "matrix": [
        1.0,
        0.0,
        0.0,
        0.0,
        0.0,
        2.220446049250313e-16,
        1.0,
        0.0,
        0.0,
        -1.0,
        2.220446049250313e-16,
        0.0,
        0.0,
        0.0,
        0.0,
        1.0
      ],
      "name": "GLTF_SceneRootNode"
    },
    {
      "children": [
        4,
        5
      ],
      "matrix": [
        0.15000000596046448,
        0.0,
        0.0,
        0.0,
        0.0,
        0.15000000596046448,
        0.0,
        0.0,
        0.0,
        0.0,
        0.15000000596046448,
        0.0,
        10.989514350891113,
        0.02256038784980774,
        0.0,
        1.0
      ],
      "name": "Circle_3"
    },
    {
      "mesh": 0,
      "name": "Object_4"
    },
    {
      "mesh": 1,
      "name": "Object_5"
    }
  ],
  "scene": 0,
  "scenes": [
    {
      "name": "Sketchfab_Scene",
      "nodes": [
        0
      ]
    }
  ]
}
