# Blender 4.1.1
# www.blender.org
mtllib comicbubble4_left.mtl
o Plane.006_Plane.008
v -1.009435 -1.058979 0.000000
v -0.163997 -1.058979 0.000000
v -1.009435 -0.664428 0.000000
v -0.163997 -0.664428 0.000000
v -1.009435 -0.664428 0.039406
v -1.009435 -1.058979 0.039406
v -0.163997 -1.058979 0.039406
v -0.163997 -0.664428 0.039406
v -0.716073 -1.058979 0.000000
v -0.716073 -0.664428 0.000000
v -0.716073 -1.058979 0.039406
v -0.716073 -0.664428 0.039406
v -0.899424 -0.664428 0.000000
v -0.899424 -0.664428 0.039406
v -0.899424 -1.058979 0.000000
v -0.899424 -1.058979 0.039406
v -1.031503 -1.215838 0.000000
v -1.031503 -1.215838 0.039406
vn -0.0000 -0.0000 -1.0000
vn -0.0000 -0.0000 1.0000
vn 1.0000 -0.0000 -0.0000
vn -1.0000 -0.0000 -0.0000
vn -0.0000 1.0000 -0.0000
vn -0.0000 -1.0000 -0.0000
vn 0.4453 -0.8954 -0.0000
vn -0.7649 0.6441 -0.0000
s 0
usemtl Material.004
f 9//1 10//1 4//1 2//1
f 11//2 7//2 8//2 12//2
f 2//3 4//3 8//3 7//3
f 3//4 1//4 6//4 5//4
f 13//5 3//5 5//5 14//5
f 9//6 2//6 7//6 11//6
f 17//7 9//7 11//7 18//7
f 4//5 10//5 12//5 8//5
f 16//2 18//2 11//2 12//2 14//2
f 15//1 13//1 10//1 9//1 17//1
f 1//1 3//1 13//1 15//1
f 6//2 16//2 14//2 5//2
f 1//6 15//6 16//6 6//6
f 10//5 13//5 14//5 12//5
f 15//8 17//8 18//8 16//8
