# Blender 4.1.1
# www.blender.org
mtllib comicbubble6_left.mtl
o Plane.003_Plane.005
v -3.477971 -1.082927 0.000000
v -3.477971 -0.661450 0.000000
v -3.477973 -1.082927 0.039406
v -3.477973 -0.661450 0.039406
v -3.341001 -1.082927 0.000000
v -3.341001 -1.082927 0.039406
v -3.341001 -0.661450 0.000000
v -3.341001 -0.661450 0.039406
v -3.478050 -1.199866 0.000000
v -3.478050 -1.199866 0.039406
v -3.478052 -1.082927 0.000000
v -3.547130 -1.013852 0.000000
v -3.504488 -1.077669 0.000000
v -3.526898 -1.062696 0.000000
v -3.541872 -1.040286 0.000000
v -2.696820 -1.013852 0.000000
v -2.765895 -1.082927 0.000000
v -2.702078 -1.040286 0.000000
v -2.717051 -1.062696 0.000000
v -2.739461 -1.077669 0.000000
v -3.547130 -0.730525 0.000000
v -3.478055 -0.661450 0.000000
v -3.541872 -0.704091 0.000000
v -3.526898 -0.681681 0.000000
v -3.504488 -0.666708 0.000000
v -2.765895 -0.661450 0.000000
v -2.696820 -0.730525 0.000000
v -2.739461 -0.666708 0.000000
v -2.717051 -0.681681 0.000000
v -2.702078 -0.704091 0.000000
v -3.547130 -1.013852 0.039406
v -3.478048 -1.082927 0.039406
v -3.541872 -1.040286 0.039406
v -3.526898 -1.062696 0.039406
v -3.504488 -1.077669 0.039406
v -2.765895 -1.082927 0.039406
v -2.696820 -1.013852 0.039406
v -2.739461 -1.077669 0.039406
v -2.717051 -1.062696 0.039406
v -2.702078 -1.040286 0.039406
v -3.478055 -0.661450 0.039406
v -3.547130 -0.730525 0.039406
v -3.504488 -0.666708 0.039406
v -3.526898 -0.681681 0.039406
v -3.541872 -0.704091 0.039406
v -2.696820 -0.730525 0.039406
v -2.765895 -0.661450 0.039406
v -2.702078 -0.704091 0.039406
v -2.717051 -0.681681 0.039406
v -2.739461 -0.666708 0.039406
vn 1.0000 -0.0000 -0.0000
vn -0.0000 1.0000 -0.0000
vn 0.0007 -1.0000 -0.0000
vn -0.0000 -1.0000 -0.0000
vn -0.0000 -0.0000 -1.0000
vn -1.0000 -0.0000 -0.0000
vn -0.0000 -0.0000 1.0000
vn 0.6491 -0.7607 -0.0000
vn -1.0000 0.0007 -0.0000
vn 0.1951 0.9808 -0.0000
vn 0.5555 0.8315 -0.0000
vn 0.8315 0.5555 -0.0000
vn 0.9808 0.1951 -0.0000
vn 0.1951 -0.9808 -0.0000
vn 0.5555 -0.8315 -0.0000
vn 0.8315 -0.5555 -0.0000
vn 0.9808 -0.1951 -0.0000
vn -0.1951 -0.9808 -0.0000
vn -0.5555 -0.8315 -0.0000
vn -0.8315 -0.5556 -0.0000
vn -0.9808 -0.1951 -0.0000
vn -0.1951 0.9808 -0.0000
vn -0.5555 0.8315 -0.0000
vn -0.8315 0.5556 -0.0000
vn -0.9808 0.1951 -0.0000
s 0
usemtl Material.006
f 16//1 27//1 46//1 37//1
f 2//2 22//2 41//2 4//2
f 11//3 1//3 3//3 32//3
f 26//2 7//2 8//2 47//2
f 5//4 17//4 36//4 6//4
f 7//2 2//2 4//2 8//2
f 11//5 13//5 14//5 15//5 12//5 21//5 23//5 24//5 25//5 22//5 2//5 7//5 26//5 28//5 29//5 30//5 27//5 16//5 18//5 19//5 20//5 17//5 5//5 9//5 1//5
f 21//6 12//6 31//6 42//6
f 3//7 10//7 6//7 36//7 38//7 39//7 40//7 37//7 46//7 48//7 49//7 50//7 47//7 8//7 4//7 41//7 43//7 44//7 45//7 42//7 31//7 33//7 34//7 35//7 32//7
f 9//8 5//8 6//8 10//8
f 1//9 9//9 10//9 3//9
f 26//10 47//10 50//10 28//10
f 28//11 50//11 49//11 29//11
f 29//12 49//12 48//12 30//12
f 30//13 48//13 46//13 27//13
f 36//14 17//14 20//14 38//14
f 38//15 20//15 19//15 39//15
f 39//16 19//16 18//16 40//16
f 40//17 18//17 16//17 37//17
f 11//18 32//18 35//18 13//18
f 13//19 35//19 34//19 14//19
f 14//20 34//20 33//20 15//20
f 15//21 33//21 31//21 12//21
f 41//22 22//22 25//22 43//22
f 43//23 25//23 24//23 44//23
f 44//24 24//24 23//24 45//24
f 45//25 23//25 21//25 42//25
