# Blender 4.1.1
# www.blender.org
mtllib comicbubble8_middle.mtl
o Plane.008_Plane.010
v -1.880540 -1.186951 0.039406
v -1.880540 -1.186951 0.000000
v -1.801690 -1.056845 0.039406
v -1.801690 -1.056845 0.000000
v -1.949046 -1.054088 0.000000
v -2.304479 -0.860695 0.000000
v -2.167038 -1.049866 0.000000
v -2.222487 -1.021614 0.000000
v -2.266491 -0.977609 0.000000
v -2.294744 -0.922160 0.000000
v -1.448247 -0.860695 0.000000
v -1.647154 -1.059602 0.000000
v -1.457983 -0.922160 0.000000
v -1.486235 -0.977609 0.000000
v -1.530240 -1.021614 0.000000
v -1.585689 -1.049866 0.000000
v -2.304479 -0.832587 0.000000
v -2.105572 -0.633680 0.000000
v -2.294744 -0.771121 0.000000
v -2.266491 -0.715672 0.000000
v -2.222487 -0.671668 0.000000
v -2.167038 -0.643415 0.000000
v -1.647154 -0.633680 0.000000
v -1.448247 -0.832587 0.000000
v -1.585689 -0.643415 0.000000
v -1.530240 -0.671668 0.000000
v -1.486235 -0.715672 0.000000
v -1.457983 -0.771121 0.000000
v -2.105572 -0.633680 0.039406
v -2.304479 -0.832587 0.039406
v -2.167038 -0.643415 0.039406
v -2.222487 -0.671668 0.039406
v -2.266491 -0.715672 0.039406
v -2.294744 -0.771121 0.039406
v -2.304479 -0.860695 0.039406
v -1.949046 -1.054088 0.039406
v -2.294744 -0.922161 0.039406
v -2.266491 -0.977609 0.039406
v -2.222487 -1.021614 0.039406
v -2.167038 -1.049867 0.039406
v -1.647154 -1.059602 0.039406
v -1.448247 -0.860695 0.039406
v -1.585689 -1.049867 0.039406
v -1.530240 -1.021614 0.039406
v -1.486235 -0.977609 0.039406
v -1.457983 -0.922160 0.039406
v -1.448247 -0.832587 0.039406
v -1.647154 -0.633680 0.039406
v -1.457983 -0.771121 0.039406
v -1.486235 -0.715672 0.039406
v -1.530240 -0.671668 0.039406
v -1.585689 -0.643415 0.039406
vn -0.0178 -0.9998 -0.0000
vn 0.8552 -0.5183 -0.0000
vn -0.0000 1.0000 -0.0000
vn -0.0000 -0.0000 -1.0000
vn -0.0000 -0.0000 1.0000
vn 1.0000 -0.0000 -0.0000
vn 0.1564 0.9877 -0.0000
vn 0.4540 0.8910 -0.0000
vn 0.7071 0.7071 -0.0000
vn 0.8910 0.4540 -0.0000
vn 0.9877 0.1564 -0.0000
vn 0.1564 -0.9877 -0.0000
vn 0.4540 -0.8910 -0.0000
vn 0.7071 -0.7071 -0.0000
vn 0.8910 -0.4540 -0.0000
vn 0.9877 -0.1564 -0.0000
vn -0.0194 -0.9998 -0.0000
vn -0.4540 -0.8910 -0.0000
vn -0.7071 -0.7071 -0.0000
vn -0.8910 -0.4540 -0.0000
vn -0.9877 -0.1564 -0.0000
vn -0.1564 0.9877 -0.0000
vn -0.4540 0.8910 -0.0000
vn -0.7071 0.7071 -0.0000
vn -0.8910 0.4540 -0.0000
vn -0.9877 0.1564 -0.0000
vn -1.0000 -0.0000 -0.0000
vn -0.8888 -0.4583 -0.0000
s 0
usemtl Material.008
f 4//1 12//1 41//1 3//1
f 2//2 4//2 3//2 1//2
f 23//3 18//3 29//3 48//3
f 5//4 7//4 8//4 9//4 10//4 6//4 17//4 19//4 20//4 21//4 22//4 18//4 23//4 25//4 26//4 27//4 28//4 24//4 11//4 13//4 14//4 15//4 16//4 12//4 4//4 2//4
f 35//5 37//5 38//5 39//5 40//5 36//5 1//5 3//5 41//5 43//5 44//5 45//5 46//5 42//5 47//5 49//5 50//5 51//5 52//5 48//5 29//5 31//5 32//5 33//5 34//5 30//5
f 11//6 24//6 47//6 42//6
f 23//7 48//7 52//7 25//7
f 25//8 52//8 51//8 26//8
f 26//9 51//9 50//9 27//9
f 27//10 50//10 49//10 28//10
f 28//11 49//11 47//11 24//11
f 41//12 12//12 16//12 43//12
f 43//13 16//13 15//13 44//13
f 44//14 15//14 14//14 45//14
f 45//15 14//15 13//15 46//15
f 46//16 13//16 11//16 42//16
f 5//17 36//17 40//17 7//17
f 7//18 40//18 39//18 8//18
f 8//19 39//19 38//19 9//19
f 9//20 38//20 37//20 10//20
f 10//21 37//21 35//21 6//21
f 29//22 18//22 22//22 31//22
f 31//23 22//23 21//23 32//23
f 32//24 21//24 20//24 33//24
f 33//25 20//25 19//25 34//25
f 34//26 19//26 17//26 30//26
f 17//27 6//27 35//27 30//27
f 5//28 2//28 1//28 36//28
