# Blender 4.1.1
# www.blender.org
mtllib comicbubble1_right.mtl
o Plane.005_Plane.007
v 0.688644 0.741708 0.007978
v 0.602514 0.745753 0.007978
v 0.519695 0.757734 0.007978
v 0.443368 0.777189 0.007978
v 0.376467 0.803371 0.007978
v 0.321563 0.835274 0.007978
v 0.280765 0.871672 0.007978
v 0.255643 0.911166 0.007978
v 0.247160 0.952238 0.007978
v 0.255643 0.993310 0.007978
v 0.280765 1.032804 0.007978
v 0.321563 1.069202 0.007978
v 0.376467 1.101105 0.007978
v 0.443368 1.127287 0.007978
v 0.519695 1.146742 0.007978
v 0.602514 1.158723 0.007978
v 0.688644 1.162768 0.007978
v 0.774773 1.158723 0.007978
v 0.857592 1.146742 0.007978
v 0.933919 1.127287 0.007978
v 1.000820 1.101105 0.007978
v 1.055724 1.069202 0.007978
v 1.096522 1.032804 0.007978
v 1.121645 0.993310 0.007978
v 1.130128 0.952238 0.007978
v 1.121645 0.911165 0.007978
v 1.096521 0.871671 0.007978
v 1.055724 0.835274 0.007978
v 1.000820 0.803371 0.007978
v 0.914335 0.772197 0.007978
v 0.857592 0.757733 0.007978
v 0.774772 0.745753 0.007978
v 0.978897 0.795468 0.007978
v 1.063568 0.683512 0.007978
v 0.688644 0.741708 0.042330
v 0.602514 0.745753 0.042330
v 0.519695 0.757734 0.042330
v 0.443368 0.777189 0.042330
v 0.376467 0.803371 0.042330
v 0.321563 0.835274 0.042330
v 0.280765 0.871672 0.042330
v 0.255643 0.911166 0.042330
v 0.247160 0.952238 0.042330
v 0.255643 0.993310 0.042330
v 0.280765 1.032804 0.042330
v 0.321563 1.069202 0.042330
v 0.376467 1.101105 0.042330
v 0.443368 1.127287 0.042330
v 0.519695 1.146742 0.042330
v 0.602514 1.158723 0.042330
v 0.688644 1.162768 0.042330
v 0.774773 1.158723 0.042330
v 0.857592 1.146742 0.042330
v 0.933919 1.127287 0.042330
v 1.000820 1.101105 0.042330
v 1.055724 1.069202 0.042330
v 1.096522 1.032804 0.042330
v 1.121645 0.993310 0.042330
v 1.130128 0.952238 0.042330
v 1.121645 0.911165 0.042330
v 1.096521 0.871671 0.042330
v 1.055724 0.835274 0.042330
v 1.000820 0.803371 0.042330
v 0.914335 0.772197 0.042330
v 0.857592 0.757733 0.042330
v 0.774772 0.745753 0.042330
v 0.978897 0.795468 0.042330
v 1.063568 0.683512 0.042330
vn -0.0000 -0.0000 -1.0000
vn -0.0000 -0.0000 1.0000
vn -0.8438 0.5367 -0.0000
vn 0.9793 0.2023 -0.0000
vn -0.6657 0.7462 -0.0000
vn 0.9793 -0.2023 -0.0000
vn -0.5024 0.8646 -0.0000
vn 0.8437 -0.5367 -0.0000
vn -0.3644 0.9312 -0.0000
vn 0.6657 -0.7462 -0.0000
vn -0.2470 0.9690 -0.0000
vn -0.0469 -0.9989 -0.0000
vn 0.5024 -0.8646 -0.0000
vn -0.1432 0.9897 -0.0000
vn -0.1432 -0.9897 -0.0000
vn 0.3391 -0.9407 -0.0000
vn -0.0469 0.9989 -0.0000
vn -0.2470 -0.9690 -0.0000
vn 0.2470 -0.9690 -0.0000
vn 0.0469 0.9989 -0.0000
vn -0.3644 -0.9312 -0.0000
vn 0.1432 -0.9897 -0.0000
vn 0.1432 0.9897 -0.0000
vn -0.5024 -0.8646 -0.0000
vn 0.0469 -0.9989 -0.0000
vn 0.2470 0.9690 -0.0000
vn -0.6657 -0.7462 -0.0000
vn 0.7976 0.6032 -0.0000
vn 0.3644 0.9312 -0.0000
vn -0.8438 -0.5367 -0.0000
vn -0.5109 -0.8597 -0.0000
vn 0.5024 0.8646 -0.0000
vn -0.9793 -0.2023 -0.0000
vn 0.6657 0.7462 -0.0000
vn -0.9793 0.2023 -0.0000
vn 0.8438 0.5367 -0.0000
s 0
usemtl Material.001
f 2//1 3//1 4//1 5//1 6//1 7//1 8//1 9//1 10//1 11//1 12//1 13//1 14//1 15//1 16//1 17//1 18//1 19//1 20//1 21//1 22//1 23//1 24//1 25//1 26//1 27//1 28//1 29//1 33//1 34//1 30//1 31//1 32//1 1//1
f 36//2 35//2 66//2 65//2 64//2 68//2 67//2 63//2 62//2 61//2 60//2 59//2 58//2 57//2 56//2 55//2 54//2 53//2 52//2 51//2 50//2 49//2 48//2 47//2 46//2 45//2 44//2 43//2 42//2 41//2 40//2 39//2 38//2 37//2
f 10//3 44//3 45//3 11//3
f 24//4 58//4 59//4 25//4
f 11//5 45//5 46//5 12//5
f 25//6 59//6 60//6 26//6
f 12//7 46//7 47//7 13//7
f 26//8 60//8 61//8 27//8
f 13//9 47//9 48//9 14//9
f 27//10 61//10 62//10 28//10
f 14//11 48//11 49//11 15//11
f 1//12 35//12 36//12 2//12
f 28//13 62//13 63//13 29//13
f 15//14 49//14 50//14 16//14
f 2//15 36//15 37//15 3//15
f 29//16 63//16 67//16 33//16
f 16//17 50//17 51//17 17//17
f 3//18 37//18 38//18 4//18
f 30//19 64//19 65//19 31//19
f 17//20 51//20 52//20 18//20
f 4//21 38//21 39//21 5//21
f 31//22 65//22 66//22 32//22
f 18//23 52//23 53//23 19//23
f 5//24 39//24 40//24 6//24
f 32//25 66//25 35//25 1//25
f 19//26 53//26 54//26 20//26
f 6//27 40//27 41//27 7//27
f 33//28 67//28 68//28 34//28
f 20//29 54//29 55//29 21//29
f 7//30 41//30 42//30 8//30
f 34//31 68//31 64//31 30//31
f 21//32 55//32 56//32 22//32
f 8//33 42//33 43//33 9//33
f 22//34 56//34 57//34 23//34
f 9//35 43//35 44//35 10//35
f 23//36 57//36 58//36 24//36
